<svg width="1024" height="1024" viewBox="0 0 1024 1024" fill="none" xmlns="http://www.w3.org/2000/svg">
  <!-- Adaptive foreground (keep within safe area, no background) -->
  <g transform="translate(128, 128)">
    <!-- Compass rings -->
    <circle cx="384" cy="336" r="260" stroke="#0F172A" stroke-width="26" opacity="0.9"/>
    <circle cx="384" cy="336" r="190" stroke="#0F172A" stroke-width="18" opacity="0.65"/>

    <!-- Route arc -->
    <path d="M100 520 C210 430 270 390 384 390 C498 390 570 430 668 320" stroke="#0F172A" stroke-width="20" stroke-linecap="round" stroke-linejoin="round" stroke-dasharray="26 22" opacity="0.9"/>

    <!-- Destination marker -->
    <circle cx="668" cy="320" r="34" fill="#0F172A"/>
    <circle cx="668" cy="320" r="16" fill="#FBBF24"/>

    <!-- Navigation arrow -->
    <path d="M372 80 L520 400 L430 366 L382 486 L372 80 Z" fill="#0EA5E9" stroke="#E0F2FE" stroke-width="12" stroke-linejoin="round"/>
    <circle cx="384" cy="336" r="32" fill="#FBBF24" stroke="#0F172A" stroke-width="10"/>

    <!-- Bus badge -->
    <g transform="translate(240, 420)">
      <rect x="0" y="0" width="120" height="86" rx="18" fill="#0F172A" opacity="0.92"/>
      <rect x="14" y="14" width="92" height="46" rx="10" fill="#E0F2FE" opacity="0.95"/>
      <rect x="22" y="22" width="22" height="22" rx="6" fill="#0EA5E9" opacity="0.8"/>
      <rect x="52" y="22" width="22" height="22" rx="6" fill="#0EA5E9" opacity="0.8"/>
      <rect x="82" y="22" width="22" height="22" rx="6" fill="#0EA5E9" opacity="0.8"/>
      <circle cx="32" cy="78" r="12" fill="#0EA5E9"/>
      <circle cx="88" cy="78" r="12" fill="#0EA5E9"/>
      <circle cx="32" cy="78" r="6" fill="#E0F2FE" opacity="0.5"/>
      <circle cx="88" cy="78" r="6" fill="#E0F2FE" opacity="0.5"/>
    </g>
  </g>
</svg>
